<svg width="25" height="24" viewBox="0 0 25 24" fill="none" xmlns="http://www.w3.org/2000/svg">
<g clip-path="url(#clip0_3_110)">
<path d="M22.8125 2.25H22.25V3.375H20.75V2.25H17.75V3.375H16.25V2.25H13.25V3.375H11.75V2.25H8.75V3.375H7.25V2.25H4.25V3.375H2.75V2.25H2.1875C2.06438 2.24996 1.94245 2.27419 1.82869 2.32129C1.71493 2.36839 1.61157 2.43744 1.52451 2.52451C1.43744 2.61157 1.36839 2.71493 1.32129 2.82869C1.27419 2.94245 1.24996 3.06438 1.25 3.1875V4.5H23.75V3.1875C23.75 3.06438 23.7258 2.94245 23.6787 2.82869C23.6316 2.71493 23.5626 2.61157 23.4755 2.52451C23.3884 2.43744 23.2851 2.36839 23.1713 2.32129C23.0576 2.27419 22.9356 2.24996 22.8125 2.25V2.25Z" fill="#FF808D"/>
<path d="M20 15.375C20 13.8916 19.5601 12.4416 18.736 11.2082C17.9119 9.97486 16.7406 9.01356 15.3701 8.44591C13.9997 7.87825 12.4917 7.72972 11.0368 8.01911C9.58197 8.3085 8.2456 9.02281 7.1967 10.0717C6.14781 11.1206 5.4335 12.457 5.14411 13.9118C4.85472 15.3667 5.00325 16.8747 5.57091 18.2451C6.13856 19.6156 7.09986 20.7869 8.33323 21.611C9.5666 22.4351 11.0166 22.875 12.5 22.875C13.4849 22.875 14.4602 22.6811 15.3702 22.3042C16.2801 21.9273 17.1069 21.3748 17.8034 20.6784C18.4998 19.9819 19.0523 19.1551 19.4292 18.2452C19.8061 17.3352 20 16.3599 20 15.375V15.375ZM8.39 16.7705L9.45078 15.7097L10.7764 17.0358L15.5492 12.2625L16.61 13.3233L10.7764 19.1569L8.39 16.7705Z" fill="#FF808D"/>
<path d="M22.8125 1.875H22.625V1.125C22.625 1.02554 22.5855 0.930161 22.5152 0.859835C22.4448 0.789509 22.3495 0.75 22.25 0.75H20.75C20.6505 0.75 20.5552 0.789509 20.4848 0.859835C20.4145 0.930161 20.375 1.02554 20.375 1.125V1.875H18.125V1.125C18.125 1.02554 18.0855 0.930161 18.0152 0.859835C17.9448 0.789509 17.8495 0.75 17.75 0.75H16.25C16.1505 0.75 16.0552 0.789509 15.9848 0.859835C15.9145 0.930161 15.875 1.02554 15.875 1.125V1.875H13.625V1.125C13.625 1.02554 13.5855 0.930161 13.5152 0.859835C13.4448 0.789509 13.3495 0.75 13.25 0.75H11.75C11.6505 0.75 11.5552 0.789509 11.4848 0.859835C11.4145 0.930161 11.375 1.02554 11.375 1.125V1.875H9.125V1.125C9.125 1.02554 9.08549 0.930161 9.01517 0.859835C8.94484 0.789509 8.84946 0.75 8.75 0.75H7.25C7.15054 0.75 7.05516 0.789509 6.98483 0.859835C6.91451 0.930161 6.875 1.02554 6.875 1.125V1.875H4.625V1.125C4.625 1.02554 4.58549 0.930161 4.51516 0.859835C4.44484 0.789509 4.34946 0.75 4.25 0.75H2.75C2.65054 0.75 2.55516 0.789509 2.48484 0.859835C2.41451 0.930161 2.375 1.02554 2.375 1.125V1.875H2.1875C1.83952 1.87538 1.50591 2.01379 1.25985 2.25985C1.01379 2.50591 0.875385 2.83952 0.875 3.1875V19.6875C0.875385 20.0355 1.01379 20.3691 1.25985 20.6152C1.50591 20.8612 1.83952 20.9996 2.1875 21H6.99453C8.46418 22.4421 10.441 23.25 12.5 23.25C14.559 23.25 16.5358 22.4421 18.0055 21H22.8125C23.1605 20.9996 23.4941 20.8612 23.7402 20.6152C23.9862 20.3691 24.1246 20.0355 24.125 19.6875V3.1875C24.1246 2.83952 23.9862 2.50591 23.7402 2.25985C23.4941 2.01379 23.1605 1.87538 22.8125 1.875V1.875ZM21.125 1.5H21.875V3H21.125V1.5ZM16.625 1.5H17.375V3H16.625V1.5ZM12.125 1.5H12.875V3H12.125V1.5ZM7.625 1.5H8.375V3H7.625V1.5ZM3.125 1.5H3.875V3H3.125V1.5ZM12.5 22.5C8.57141 22.5 5.375 19.3036 5.375 15.375C5.375 11.4464 8.57141 8.25 12.5 8.25C16.4286 8.25 19.625 11.4464 19.625 15.375C19.625 19.3036 16.4286 22.5 12.5 22.5ZM23.375 19.6875C23.3749 19.8366 23.3156 19.9796 23.2101 20.0851C23.1046 20.1906 22.9616 20.2499 22.8125 20.25H18.6805C19.7794 18.8629 20.3766 17.1447 20.375 15.375C20.375 11.0325 16.8425 7.5 12.5 7.5C8.1575 7.5 4.625 11.0325 4.625 15.375C4.62336 17.1447 5.22059 18.8629 6.31953 20.25H2.1875C2.03835 20.2499 1.89535 20.1906 1.78989 20.0851C1.68443 19.9796 1.62512 19.8366 1.625 19.6875V4.875H23.375V19.6875ZM23.375 4.125H1.625V3.1875C1.62512 3.03835 1.68443 2.89535 1.78989 2.78989C1.89535 2.68443 2.03835 2.62512 2.1875 2.625H2.375V3.375C2.375 3.47446 2.41451 3.56984 2.48484 3.64016C2.55516 3.71049 2.65054 3.75 2.75 3.75H4.25C4.34946 3.75 4.44484 3.71049 4.51516 3.64016C4.58549 3.56984 4.625 3.47446 4.625 3.375V2.625H6.875V3.375C6.875 3.47446 6.91451 3.56984 6.98483 3.64016C7.05516 3.71049 7.15054 3.75 7.25 3.75H8.75C8.84946 3.75 8.94484 3.71049 9.01517 3.64016C9.08549 3.56984 9.125 3.47446 9.125 3.375V2.625H11.375V3.375C11.375 3.47446 11.4145 3.56984 11.4848 3.64016C11.5552 3.71049 11.6505 3.75 11.75 3.75H13.25C13.3495 3.75 13.4448 3.71049 13.5152 3.64016C13.5855 3.56984 13.625 3.47446 13.625 3.375V2.625H15.875V3.375C15.875 3.47446 15.9145 3.56984 15.9848 3.64016C16.0552 3.71049 16.1505 3.75 16.25 3.75H17.75C17.8495 3.75 17.9448 3.71049 18.0152 3.64016C18.0855 3.56984 18.125 3.47446 18.125 3.375V2.625H20.375V3.375C20.375 3.47446 20.4145 3.56984 20.4848 3.64016C20.5552 3.71049 20.6505 3.75 20.75 3.75H22.25C22.3495 3.75 22.4448 3.71049 22.5152 3.64016C22.5855 3.56984 22.625 3.47446 22.625 3.375V2.625H22.8125C22.9616 2.62512 23.1046 2.68443 23.2101 2.78989C23.3156 2.89535 23.3749 3.03835 23.375 3.1875V4.125Z" fill="#404040"/>
</g>
<defs>
<clipPath id="clip0_3_110">
<rect width="24" height="24" fill="white" transform="translate(0.5)"/>
</clipPath>
</defs>
</svg>
