<svg width="25" height="22" viewBox="0 0 25 22" fill="none" xmlns="http://www.w3.org/2000/svg">
<path d="M23.5348 10.932C23.591 10.9714 23.6569 10.9946 23.7254 10.9991C23.7938 11.0036 23.8622 10.9892 23.9231 10.9576C23.9839 10.9259 24.0349 10.8782 24.0705 10.8195C24.1061 10.7609 24.125 10.6936 24.125 10.625V8.37502C24.1251 8.31475 24.1106 8.25535 24.0827 8.20189C24.0549 8.14843 24.0146 8.10249 23.9652 8.06799L12.7152 0.192986C12.6521 0.148816 12.577 0.125122 12.5 0.125122C12.423 0.125122 12.3479 0.148816 12.2848 0.192986L1.03484 8.06799C0.985432 8.10249 0.945092 8.14843 0.91726 8.20189C0.889429 8.25535 0.874931 8.31475 0.875 8.37502V10.625C0.875019 10.6936 0.893856 10.7609 0.92946 10.8195C0.965063 10.8782 1.01607 10.9259 1.07693 10.9576C1.13778 10.9892 1.20616 11.0036 1.27461 10.9991C1.34306 10.9946 1.40897 10.9714 1.46516 10.932L3.5 9.50799V19.625H1.25C1.15054 19.625 1.05516 19.6645 0.984835 19.7348C0.914509 19.8052 0.875 19.9006 0.875 20V21.5C0.875 21.5995 0.914509 21.6949 0.984835 21.7652C1.05516 21.8355 1.15054 21.875 1.25 21.875H23.75C23.8495 21.875 23.9448 21.8355 24.0152 21.7652C24.0855 21.6949 24.125 21.5995 24.125 21.5V20C24.125 19.9006 24.0855 19.8052 24.0152 19.7348C23.9448 19.6645 23.8495 19.625 23.75 19.625H21.5V9.50799L23.5348 10.932ZM23.375 20.375V21.125H1.625V20.375H23.375ZM15.125 12.125H9.875C9.77554 12.125 9.68016 12.1645 9.60983 12.2348C9.53951 12.3052 9.5 12.4006 9.5 12.5V19.625H4.25V8.98299L12.5 3.20799L20.75 8.98299V19.625H15.5V12.5C15.5 12.4006 15.4605 12.3052 15.3902 12.2348C15.3198 12.1645 15.2245 12.125 15.125 12.125ZM14.75 12.875V19.625H10.25V12.875H14.75ZM12.7152 2.44299C12.6521 2.39875 12.577 2.37502 12.5 2.37502C12.423 2.37502 12.3479 2.39875 12.2848 2.44299L1.625 9.90455V8.57049L12.5 0.957986L23.375 8.57049V9.90455L12.7152 2.44299Z" fill="#404040"/>
<path d="M15.125 12.125H9.875C9.77554 12.125 9.68016 12.1645 9.60983 12.2348C9.53951 12.3052 9.5 12.4006 9.5 12.5V19.625H4.25V8.98299L12.5 3.20799L20.75 8.98299V19.625H15.5V12.5C15.5 12.4006 15.4605 12.3052 15.3902 12.2348C15.3198 12.1645 15.2245 12.125 15.125 12.125Z" fill="#FF808D"/>
<path d="M14.75 12.875V19.625H10.25V12.875H14.75Z" fill="white"/>
<path d="M12.7152 2.44299C12.6521 2.39875 12.577 2.37502 12.5 2.37502C12.423 2.37502 12.3479 2.39875 12.2848 2.44299L1.625 9.90455V8.57049L12.5 0.957986L23.375 8.57049V9.90455L12.7152 2.44299Z" fill="white"/>
</svg>
