<svg width="25" height="24" viewBox="0 0 25 24" fill="none" xmlns="http://www.w3.org/2000/svg">
<g clip-path="url(#clip0_3_120)">
<path d="M7.25 14.25H11.75V23.25H7.25V14.25Z" fill="#FF808D"/>
<path d="M19.25 10.5H23.75V23.25H19.25V10.5Z" fill="#FF808D"/>
<path fill-rule="evenodd" clip-rule="evenodd" d="M19.25 10.125H23.75C23.8495 10.125 23.9448 10.1645 24.0152 10.2348C24.0855 10.3052 24.125 10.4005 24.125 10.5V23.25C24.125 23.3495 24.0855 23.4448 24.0152 23.5152C23.9448 23.5855 23.8495 23.625 23.75 23.625H1.25C1.15054 23.625 1.05516 23.5855 0.984835 23.5152C0.914509 23.4448 0.875 23.3495 0.875 23.25V7.5C0.875 7.40054 0.914509 7.30516 0.984835 7.23483C1.05516 7.16451 1.15054 7.125 1.25 7.125H5.75C5.84946 7.125 5.94484 7.16451 6.01516 7.23483C6.08549 7.30516 6.125 7.40054 6.125 7.5V22.875H6.875V14.25C6.875 14.1505 6.91451 14.0552 6.98483 13.9848C7.05516 13.9145 7.15054 13.875 7.25 13.875H11.75C11.8495 13.875 11.9448 13.9145 12.0152 13.9848C12.0855 14.0552 12.125 14.1505 12.125 14.25V22.875H12.875V0.75C12.875 0.650544 12.9145 0.555161 12.9848 0.484835C13.0552 0.414509 13.1505 0.375 13.25 0.375H17.75C17.8495 0.375 17.9448 0.414509 18.0152 0.484835C18.0855 0.555161 18.125 0.650544 18.125 0.75V22.875H18.875V10.5C18.875 10.4005 18.9145 10.3052 18.9848 10.2348C19.0552 10.1645 19.1505 10.125 19.25 10.125ZM7.625 22.875H11.375V14.625H7.625V22.875ZM13.625 22.875H17.375V1.125H13.625V3.375V4.125V22.875ZM19.625 22.875H23.375V10.875H19.625V22.875ZM1.625 22.875H5.375V7.875H1.625V20.25V21V22.875Z" fill="#404040"/>
<path d="M5.375 22.875H1.625V21V20.25V7.875H5.375V22.875Z" fill="#FF808D"/>
<path d="M17.375 22.875H13.625V4.125V3.375V1.125H17.375V22.875Z" fill="#FF808D"/>
<path d="M8.64018 9.26517L9.12501 8.78034V11.625C9.12501 11.7245 9.16452 11.8198 9.23484 11.8902C9.30517 11.9605 9.40055 12 9.50001 12C9.59947 12 9.69485 11.9605 9.76517 11.8902C9.8355 11.8198 9.87501 11.7245 9.87501 11.625V8.78034L10.3598 9.26517C10.4302 9.3355 10.5256 9.37501 10.625 9.37501C10.7245 9.37501 10.8199 9.3355 10.8902 9.26517C10.9605 9.19484 11 9.09946 11 9C11 8.90054 10.9605 8.80515 10.8902 8.73483L9.76518 7.60983C9.73036 7.575 9.68902 7.54738 9.64352 7.52853C9.59802 7.50969 9.54926 7.49998 9.50001 7.49998C9.45076 7.49998 9.402 7.50969 9.3565 7.52853C9.311 7.54738 9.26966 7.575 9.23484 7.60983L8.10984 8.73483C8.03951 8.80515 8 8.90054 8 9C8 9.09946 8.03951 9.19484 8.10984 9.26517C8.18017 9.3355 8.27555 9.37501 8.37501 9.37501C8.47447 9.37501 8.56985 9.3355 8.64018 9.26517V9.26517Z" fill="#404040"/>
<path d="M20.6402 8.14017L21.125 7.65534V9.375C21.125 9.47445 21.1645 9.56984 21.2348 9.64016C21.3052 9.71049 21.4006 9.75 21.5 9.75C21.5995 9.75 21.6948 9.71049 21.7652 9.64016C21.8355 9.56984 21.875 9.47445 21.875 9.375V7.65534L22.3598 8.14017C22.4302 8.2105 22.5256 8.25001 22.625 8.25001C22.7245 8.25001 22.8199 8.2105 22.8902 8.14017C22.9605 8.06984 23 7.97446 23 7.875C23 7.77554 22.9605 7.68015 22.8902 7.60983L21.7652 6.48483C21.7304 6.45 21.689 6.42238 21.6435 6.40353C21.598 6.38469 21.5493 6.37498 21.5 6.37498C21.4508 6.37498 21.402 6.38469 21.3565 6.40353C21.311 6.42238 21.2697 6.45 21.2348 6.48483L20.1098 7.60983C20.0395 7.68015 20 7.77554 20 7.875C20 7.97446 20.0395 8.06984 20.1098 8.14017C20.1802 8.2105 20.2756 8.25001 20.375 8.25001C20.4745 8.25001 20.5699 8.2105 20.6402 8.14017V8.14017Z" fill="#404040"/>
</g>
<defs>
<clipPath id="clip0_3_120">
<rect width="24" height="24" fill="white" transform="translate(0.5)"/>
</clipPath>
</defs>
</svg>
