<svg width="25" height="24" viewBox="0 0 25 24" fill="none" xmlns="http://www.w3.org/2000/svg">
<g clip-path="url(#clip0_3_134)">
<path d="M16.2083 19.4855L13.6367 18.7383H13.5725C13.495 18.9577 13.3514 19.1477 13.1614 19.2821C12.9714 19.4165 12.7444 19.4886 12.5117 19.4886C12.279 19.4886 12.052 19.4165 11.8621 19.2821C11.6721 19.1477 11.5284 18.9577 11.4509 18.7383H11.3867L8.81516 19.4855C8.46733 19.6248 8.16918 19.8651 7.95915 20.1753C7.74911 20.4856 7.63681 20.8517 7.63672 21.2264V23.2383H17.3867V21.2264C17.3866 20.8517 17.2743 20.4856 17.0643 20.1753C16.8543 19.8651 16.5561 19.6248 16.2083 19.4855V19.4855Z" fill="#FF808D"/>
<path d="M23.75 15.75V13.7381C23.7499 13.3634 23.6376 12.9974 23.4276 12.6871C23.2175 12.3768 22.9194 12.1365 22.5716 11.9972L20 11.25H19.9433C19.8641 11.4666 19.7203 11.6535 19.5313 11.7856C19.3423 11.9178 19.1173 11.9886 18.8867 11.9886C18.6561 11.9886 18.4311 11.9178 18.2422 11.7856C18.0532 11.6535 17.9094 11.4666 17.8302 11.25H17.75L16.2495 11.6859C16.1729 10.7369 15.7382 9.85246 15.0335 9.21214C14.3288 8.57183 13.4069 8.22356 12.4548 8.238C11.5028 8.25243 10.5919 8.62848 9.9069 9.28986C9.22193 9.95124 8.81419 10.8484 8.76641 11.7994L7.15906 11.3325C7.06609 11.5351 6.91502 11.7055 6.72504 11.8221C6.53506 11.9387 6.31472 11.9962 6.09198 11.9874C5.86925 11.9785 5.65416 11.9037 5.47402 11.7725C5.29387 11.6412 5.15678 11.4593 5.08016 11.25H4.625L2.05344 11.9972C1.70561 12.1365 1.40746 12.3768 1.19743 12.6871C0.987396 12.9974 0.875095 13.3634 0.875 13.7381V15.75H9.88672V15.7383H9.32422C9.20109 15.7383 9.07917 15.7141 8.96541 15.667C8.85165 15.6199 8.74829 15.5508 8.66122 15.4638C8.57416 15.3767 8.50511 15.2734 8.45801 15.1596C8.41091 15.0458 8.38668 14.9239 8.38672 14.8008V14.4258C8.38668 14.3027 8.41091 14.1807 8.45801 14.067C8.50511 13.9532 8.57416 13.8499 8.66122 13.7628C8.74829 13.6757 8.85165 13.6067 8.96541 13.5596C9.07917 13.5125 9.20109 13.4882 9.32422 13.4883H9.88672V12.5508C9.88672 12.3021 9.98549 12.0637 10.1613 11.8879C10.3371 11.7121 10.5756 11.6133 10.8242 11.6133H14.1992C14.4478 11.6134 14.6862 11.7122 14.862 11.888C15.0378 12.0638 15.1366 12.3022 15.1367 12.5508V13.4883H15.6992C15.8223 13.4882 15.9443 13.5125 16.058 13.5596C16.1718 13.6067 16.2752 13.6757 16.3622 13.7628C16.4493 13.8499 16.5183 13.9532 16.5654 14.067C16.6125 14.1807 16.6368 14.3027 16.6367 14.4258V14.8008C16.6368 14.9239 16.6125 15.0458 16.5654 15.1596C16.5183 15.2734 16.4493 15.3767 16.3622 15.4638C16.2752 15.5508 16.1718 15.6199 16.058 15.667C15.9443 15.7141 15.8223 15.7383 15.6992 15.7383H15.1367" fill="#FF808D"/>
<path d="M3.5 5.0625C3.49996 4.93938 3.52419 4.81745 3.57129 4.70369C3.61839 4.58993 3.68744 4.48657 3.77451 4.39951C3.86157 4.31244 3.96493 4.24339 4.07869 4.19629C4.19245 4.14919 4.31438 4.12496 4.4375 4.125H7.8125C7.93562 4.12496 8.05755 4.14919 8.17131 4.19629C8.28507 4.24339 8.38843 4.31244 8.47549 4.39951C8.56256 4.48657 8.63161 4.58993 8.67871 4.70369C8.72581 4.81745 8.75004 4.93938 8.75 5.0625V5.98828H9.88672V4.48828C9.88672 3.49372 9.49163 2.53989 8.78837 1.83663C8.08511 1.13337 7.13128 0.738281 6.13672 0.738281C5.14216 0.738281 4.18833 1.13337 3.48507 1.83663C2.78181 2.53989 2.38672 3.49372 2.38672 4.48828V5.98828H3.5V5.0625Z" fill="#FF808D"/>
<path d="M16.25 5.0625C16.25 4.93938 16.2742 4.81745 16.3213 4.70369C16.3684 4.58993 16.4374 4.48657 16.5245 4.39951C16.6116 4.31244 16.7149 4.24339 16.8287 4.19629C16.9424 4.14919 17.0644 4.12496 17.1875 4.125H20.5625C20.6856 4.12496 20.8076 4.14919 20.9213 4.19629C21.0351 4.24339 21.1384 4.31244 21.2255 4.39951C21.3126 4.48657 21.3816 4.58993 21.4287 4.70369C21.4758 4.81745 21.5 4.93938 21.5 5.0625V5.98828H22.6367V4.48828C22.6367 3.49372 22.2416 2.53989 21.5384 1.83663C20.8351 1.13337 19.8813 0.738281 18.8867 0.738281C17.8922 0.738281 16.9383 1.13337 16.2351 1.83663C15.5318 2.53989 15.1367 3.49372 15.1367 4.48828V5.98828H16.25V5.0625Z" fill="#FF808D"/>
<path d="M22.7108 11.6489C22.6991 11.6447 22.6878 11.6405 22.6761 11.6372L20.3717 10.9673C20.3736 10.9369 20.375 10.9059 20.375 10.875V10.3786C20.7596 10.2522 21.1014 10.0211 21.3621 9.71142C21.6228 9.4017 21.7921 9.02552 21.8511 8.625H22.0625C22.4105 8.62462 22.7441 8.48621 22.9901 8.24015C23.2362 7.99409 23.3746 7.66048 23.375 7.3125V6.9375C23.3753 6.59389 23.2402 6.26399 22.9991 6.01922C22.9995 6.01266 23 6.00656 23 6V4.5C23 3.40598 22.5654 2.35677 21.7918 1.58318C21.0182 0.809597 19.969 0.375 18.875 0.375C17.781 0.375 16.7318 0.809597 15.9582 1.58318C15.1846 2.35677 14.75 3.40598 14.75 4.5V6C14.75 6.00656 14.7505 6.01266 14.7509 6.01922C14.5098 6.26399 14.3747 6.59389 14.375 6.9375V7.3125C14.3754 7.66048 14.5138 7.99409 14.7598 8.24015C15.0059 8.48621 15.3395 8.62462 15.6875 8.625H15.8989C15.9579 9.02552 16.1272 9.4017 16.3879 9.71142C16.6486 10.0211 16.9904 10.2522 17.375 10.3786V10.875C17.375 10.9059 17.3764 10.9369 17.3783 10.9673L16.5486 11.2087C16.365 10.2698 15.8608 9.42385 15.1223 8.81569C14.3837 8.20754 13.4567 7.875 12.5 7.875C11.5433 7.875 10.6163 8.20754 9.87774 8.81569C9.13918 9.42385 8.63496 10.2698 8.4514 11.2087L7.62171 10.9673C7.62359 10.9369 7.625 10.9059 7.625 10.875V10.3786C8.00958 10.2522 8.35137 10.0211 8.61207 9.71142C8.87278 9.4017 9.04211 9.02552 9.10109 8.625H9.3125C9.66047 8.62462 9.99409 8.48621 10.2401 8.24015C10.4862 7.99409 10.6246 7.66048 10.625 7.3125V6.9375C10.6253 6.59389 10.4902 6.26399 10.2491 6.01922C10.2495 6.01266 10.25 6.00656 10.25 6V4.5C10.25 3.40598 9.8154 2.35677 9.04181 1.58318C8.26822 0.809597 7.21901 0.375 6.125 0.375C5.03098 0.375 3.98177 0.809597 3.20818 1.58318C2.43459 2.35677 2 3.40598 2 4.5V6C2 6.00656 2.00046 6.01266 2.00093 6.01922C1.75977 6.26399 1.62472 6.59389 1.625 6.9375V7.3125C1.62538 7.66048 1.76379 7.99409 2.00984 8.24015C2.2559 8.48621 2.58952 8.62462 2.9375 8.625H3.1489C3.20789 9.02552 3.37722 9.4017 3.63792 9.71142C3.89863 10.0211 4.24041 10.2522 4.625 10.3786V10.875C4.625 10.9059 4.6264 10.9369 4.62828 10.9673L2.3239 11.6372C2.31218 11.6405 2.30093 11.6447 2.28921 11.6489C1.87089 11.8148 1.51222 12.1028 1.25996 12.4755C1.00771 12.8481 0.873557 13.2881 0.874996 13.7381V15.75C0.874996 15.8495 0.914505 15.9448 0.984831 16.0152C1.05516 16.0855 1.15054 16.125 1.25 16.125H9.5239C9.58289 16.5255 9.75222 16.9017 10.0129 17.2114C10.2736 17.5211 10.6154 17.7522 11 17.8786V18.375C11 18.4059 11.0014 18.4369 11.0033 18.4673L8.6989 19.1372C8.68718 19.1405 8.67593 19.1447 8.66421 19.1489C8.24589 19.3148 7.88722 19.6028 7.63496 19.9755C7.38271 20.3481 7.24856 20.7881 7.25 21.2381V23.25C7.25 23.3495 7.2895 23.4448 7.35983 23.5152C7.43016 23.5855 7.52554 23.625 7.625 23.625H17.375C17.4745 23.625 17.5698 23.5855 17.6402 23.5152C17.7105 23.4448 17.75 23.3495 17.75 23.25V21.2381C17.7514 20.7881 17.6173 20.3481 17.365 19.9755C17.1128 19.6028 16.7541 19.3148 16.3358 19.1489C16.3241 19.1447 16.3128 19.1405 16.3011 19.1372L13.9967 18.4673C13.9986 18.4369 14 18.4059 14 18.375V17.8786C14.3846 17.7522 14.7264 17.5211 14.9871 17.2114C15.2478 16.9017 15.4171 16.5255 15.4761 16.125H23.75C23.8495 16.125 23.9448 16.0855 24.0152 16.0152C24.0855 15.9448 24.125 15.8495 24.125 15.75V13.7381C24.1264 13.2881 23.9923 12.8481 23.74 12.4755C23.4878 12.1028 23.1291 11.8148 22.7108 11.6489V11.6489ZM9.875 6.9375V7.3125C9.87487 7.46165 9.81557 7.60465 9.71011 7.71011C9.60464 7.81557 9.46164 7.87488 9.3125 7.875H9.125V6.375H9.3125C9.46164 6.37512 9.60464 6.43443 9.71011 6.53989C9.81557 6.64535 9.87487 6.78835 9.875 6.9375V6.9375ZM3.125 7.875H2.9375C2.78835 7.87488 2.64535 7.81557 2.53989 7.71011C2.43442 7.60465 2.37512 7.46165 2.375 7.3125V6.9375C2.37512 6.78835 2.43442 6.64535 2.53989 6.53989C2.64535 6.43443 2.78835 6.37512 2.9375 6.375H3.125V7.875ZM3.125 5.0625V5.625H2.75V4.5C2.75 3.60489 3.10558 2.74645 3.73851 2.11351C4.37145 1.48058 5.22989 1.125 6.125 1.125C7.0201 1.125 7.87855 1.48058 8.51148 2.11351C9.14442 2.74645 9.5 3.60489 9.5 4.5V5.625H9.125V5.0625C9.12461 4.71452 8.98621 4.38091 8.74015 4.13485C8.49409 3.88879 8.16047 3.75038 7.8125 3.75H4.4375C4.08952 3.75038 3.7559 3.88879 3.50984 4.13485C3.26379 4.38091 3.12538 4.71452 3.125 5.0625V5.0625ZM3.875 8.29688V5.0625C3.87512 4.91335 3.93442 4.77035 4.03989 4.66489C4.14535 4.55943 4.28835 4.50012 4.4375 4.5H7.8125C7.96164 4.50012 8.10464 4.55943 8.21011 4.66489C8.31557 4.77035 8.37487 4.91335 8.375 5.0625V8.29688C8.375 9.11156 7.71593 9.75 6.875 9.75H5.375C4.53406 9.75 3.875 9.11156 3.875 8.29688ZM5.75 15.375H1.625V13.7381C1.62404 13.4411 1.71171 13.1505 1.87679 12.9036C2.04188 12.6567 2.27687 12.4647 2.55171 12.352L4.86078 11.6808C5.06496 12.0009 5.38259 12.2319 5.75 12.3277V15.375ZM5.375 10.875V10.5H6.875V10.875C6.875 11.0739 6.79598 11.2647 6.65533 11.4053C6.51467 11.546 6.32391 11.625 6.125 11.625C5.92608 11.625 5.73532 11.546 5.59467 11.4053C5.45401 11.2647 5.375 11.0739 5.375 10.875ZM8.12703 15.375H6.5V12.3277C6.8674 12.2319 7.18503 12.0009 7.38921 11.6808L8.37546 11.9677C8.37546 11.9784 8.375 11.9892 8.375 12V13.5C8.375 13.5066 8.37547 13.5127 8.37593 13.5192C8.13477 13.764 7.99972 14.0939 8 14.4375V14.8125C7.99972 15.0071 8.04313 15.1994 8.12703 15.375V15.375ZM9.5 15.375H9.3125C9.16335 15.3749 9.02035 15.3156 8.91489 15.2101C8.80942 15.1046 8.75012 14.9616 8.75 14.8125V14.4375C8.75012 14.2884 8.80942 14.1454 8.91489 14.0399C9.02035 13.9344 9.16335 13.8751 9.3125 13.875H9.5V15.375ZM12.125 22.875H8V21.2381C7.99904 20.9411 8.08671 20.6505 8.25179 20.4036C8.41688 20.1567 8.65187 19.9647 8.92672 19.852L11.2358 19.1808C11.44 19.5008 11.7576 19.7318 12.125 19.8277V22.875ZM11.75 18.375V18H13.25V18.375C13.25 18.5739 13.171 18.7647 13.0303 18.9053C12.8897 19.046 12.6989 19.125 12.5 19.125C12.3011 19.125 12.1103 19.046 11.9697 18.9053C11.829 18.7647 11.75 18.5739 11.75 18.375ZM16.0733 19.852C16.3481 19.9647 16.5831 20.1567 16.7482 20.4036C16.9133 20.6505 17.001 20.9411 17 21.2381V22.875H12.875V19.8277C13.2423 19.7318 13.56 19.5008 13.7642 19.1808L16.0733 19.852ZM14.75 15.7969C14.75 16.6116 14.0909 17.25 13.25 17.25H11.75C10.9091 17.25 10.25 16.6116 10.25 15.7969V12.5625C10.2501 12.4134 10.3094 12.2704 10.4149 12.1649C10.5203 12.0594 10.6633 12.0001 10.8125 12H14.1875C14.3366 12.0001 14.4796 12.0594 14.5851 12.1649C14.6906 12.2704 14.7499 12.4134 14.75 12.5625V15.7969ZM14.1875 11.25H10.8125C10.4645 11.2504 10.1309 11.3888 9.88484 11.6348C9.63878 11.8809 9.50038 12.2145 9.5 12.5625V13.125H9.125V12C9.125 11.1049 9.48058 10.2465 10.1135 9.61351C10.7464 8.98058 11.6049 8.625 12.5 8.625C13.3951 8.625 14.2535 8.98058 14.8865 9.61351C15.5194 10.2465 15.875 11.1049 15.875 12V13.125H15.5V12.5625C15.4996 12.2145 15.3612 11.8809 15.1151 11.6348C14.8691 11.3888 14.5355 11.2504 14.1875 11.25V11.25ZM16.25 14.8125C16.2499 14.9616 16.1906 15.1046 16.0851 15.2101C15.9796 15.3156 15.8366 15.3749 15.6875 15.375H15.5V13.875H15.6875C15.8366 13.8751 15.9796 13.9344 16.0851 14.0399C16.1906 14.1454 16.2499 14.2884 16.25 14.4375V14.8125ZM22.625 6.9375V7.3125C22.6249 7.46165 22.5656 7.60465 22.4601 7.71011C22.3546 7.81557 22.2116 7.87488 22.0625 7.875H21.875V6.375H22.0625C22.2116 6.37512 22.3546 6.43443 22.4601 6.53989C22.5656 6.64535 22.6249 6.78835 22.625 6.9375V6.9375ZM15.875 7.875H15.6875C15.5383 7.87488 15.3953 7.81557 15.2899 7.71011C15.1844 7.60465 15.1251 7.46165 15.125 7.3125V6.9375C15.1251 6.78835 15.1844 6.64535 15.2899 6.53989C15.3953 6.43443 15.5383 6.37512 15.6875 6.375H15.875V7.875ZM15.875 5.0625V5.625H15.5V4.5C15.5 3.60489 15.8556 2.74645 16.4885 2.11351C17.1214 1.48058 17.9799 1.125 18.875 1.125C19.7701 1.125 20.6285 1.48058 21.2615 2.11351C21.8944 2.74645 22.25 3.60489 22.25 4.5V5.625H21.875V5.0625C21.8746 4.71452 21.7362 4.38091 21.4901 4.13485C21.2441 3.88879 20.9105 3.75038 20.5625 3.75H17.1875C16.8395 3.75038 16.5059 3.88879 16.2598 4.13485C16.0138 4.38091 15.8754 4.71452 15.875 5.0625V5.0625ZM16.625 8.29688V5.0625C16.6251 4.91335 16.6844 4.77035 16.7899 4.66489C16.8953 4.55943 17.0383 4.50012 17.1875 4.5H20.5625C20.7116 4.50012 20.8546 4.55943 20.9601 4.66489C21.0656 4.77035 21.1249 4.91335 21.125 5.0625V8.29688C21.125 9.11156 20.4659 9.75 19.625 9.75H18.125C17.2841 9.75 16.625 9.11156 16.625 8.29688ZM18.5 15.375H16.873C16.9569 15.1994 17.0003 15.0071 17 14.8125V14.4375C17.0003 14.0939 16.8652 13.764 16.6241 13.5192C16.6245 13.5127 16.625 13.5066 16.625 13.5V12C16.625 11.9892 16.6245 11.9784 16.6245 11.9677L17.6108 11.6808C17.815 12.0009 18.1326 12.2319 18.5 12.3277V15.375ZM18.125 10.875V10.5H19.625V10.875C19.625 11.0739 19.546 11.2647 19.4053 11.4053C19.2647 11.546 19.0739 11.625 18.875 11.625C18.6761 11.625 18.4853 11.546 18.3447 11.4053C18.204 11.2647 18.125 11.0739 18.125 10.875ZM23.375 15.375H19.25V12.3277C19.6174 12.2319 19.935 12.0009 20.1392 11.6808L22.4483 12.352C22.7231 12.4647 22.9581 12.6567 23.1232 12.9036C23.2883 13.1505 23.376 13.4411 23.375 13.7381V15.375Z" fill="#404040"/>
</g>
<defs>
<clipPath id="clip0_3_134">
<rect width="24" height="24" fill="white" transform="translate(0.5)"/>
</clipPath>
</defs>
</svg>
